<?xml version="1.0" encoding="iso-8859-1"?>
<!DOCTYPE svg PUBLIC "-//W3C//DTD SVG 1.1//EN" "http://www.w3.org/Graphics/SVG/1.1/DTD/svg11.dtd">
<svg 
 version="1.1" xmlns="http://www.w3.org/2000/svg" xmlns:xlink="http://www.w3.org/1999/xlink" x="0px" y="0px" width="512px"
	 height="512px" viewBox="0 0 512 512" style="enable-background:new 0 0 512 512;" xml:space="preserve"
><g id="afcae5a789ccd549f9c6e2a2f815e827"><g></g><g fill="#4d4d4d"><path style="display: inline;" d="M495.548,373.104h-21.774V96.313c0-11.711-8.167-21.292-18.147-21.292H56.375
		c-9.982,0-18.15,9.581-18.15,21.292v276.792H16.45c-11.979,0-18.678,9.09-14.892,20.197l8.005,23.479
		c3.789,11.107,16.686,20.198,28.663,20.198h435.548c11.977,0,24.877-9.091,28.661-20.198l8.009-23.479
		C514.229,382.194,507.528,373.104,495.548,373.104z M299.557,415.688h-87.114v-21.292h87.114V415.688z M451.996,351.813v21.292
		h-21.778H81.782H60.004v-21.292V117.604c0-11.71,9.799-21.291,21.778-21.291h348.436c11.977,0,21.778,9.581,21.778,21.294V351.813z
		 M81.778,117.604l0.004,234.209h348.436V117.606l-348.436-0.003H81.778z M128.25,138.896c11.758,0,21.292,9.531,21.292,21.292
		c0,11.76-9.533,21.291-21.292,21.291s-21.292-9.531-21.292-21.291C106.958,148.427,116.491,138.896,128.25,138.896z"></path></g></g></svg>